<?xml version="1.0" encoding="iso-8859-1"?>
<!-- Generator: Adobe Illustrator 16.0.0, SVG Export Plug-In . SVG Version: 6.00 Build 0)  -->
<!DOCTYPE svg PUBLIC "-//W3C//DTD SVG 1.1//EN" "http://www.w3.org/Graphics/SVG/1.1/DTD/svg11.dtd">
<svg version="1.1" id="Capa_1" xmlns="http://www.w3.org/2000/svg" xmlns:xlink="http://www.w3.org/1999/xlink" x="0px" y="0px"
	 width="150px" height="150px" viewBox="0 0 611.998 611.998" style="enable-background:new 0 0 611.998 611.998;"
	 xml:space="preserve">
<g>
	<g>
		<g id="group-18svg">
			<path fill='white' id="path-1_9_" d="M115.098,211.72c-10.277,0-18.408-0.719-22.653-1.185H52.948c-12.9,0-23.857-4.818-30.064-13.23
				c-5.518-7.46-6.887-17.009-3.856-26.869l20.049-62.509c4.235-13.823,16.543-21.915,33.688-22.002l82.375-0.437h0.01
				c2.39,0,4.536,0.185,6.712,0.612c10.307,1.934,35.33,6.645,47.832,27.568c7.761,12.988,8.723,28.948,2.865,47.443
				C202.203,193.749,167.602,211.72,115.098,211.72z M46.721,180.508c0.486,0,2.536,0.865,6.227,0.865l42.227,0.126
				c5.848,0.67,13.114,1.059,19.923,1.059c22.439,0,61.334-3.934,69.678-30.269c3.225-10.19,3.196-18.146-0.097-23.663
				c-5.77-9.656-21.429-12.599-27.325-13.707l-0.991-0.185c-0.359-0.068-0.699-0.087-1.039-0.087l-82.404,0.437
				c-3.963,0.02-5.634,0.903-5.867,1.136l-20.234,62.947c-0.282,0.933-0.223,1.418-0.223,1.418
				C46.585,180.538,46.634,180.508,46.721,180.508z"/>
			<path fill='white' id="path-2_4_" d="M279.896,220.258c-10.714,0-17.484,0-17.484,0c-0.02,0-0.049,0-0.078,0
				c-10.841,0-21.352-5.576-28.025-14.61c-6.431-8.694-8.257-19.953-5.003-30.541l20.011-64.705
				c4.439-14.483,22.44-24.353,38.167-24.431l86.794-0.457v-0.01c0,0,0.117,0.175,2.293,0.592
				c10.005,1.924,32.435,8.685,45.044,29.871c8.305,13.94,8.354,30.833,2.331,49.813
				C409.732,210.641,337.257,220.258,279.896,220.258z M365.611,114.648l-82.413,0.437c-1.136,0.01-4.954,0.301-6.042,3.817
				L257.155,183.5c-0.515,1.69-0.33,3.186,0.583,4.42c1.127,1.535,3.128,2.409,5.498,2.409c1.02,0.039,7.11,0.369,16.659,0.369
				c63.433,0,108.632-13.318,115.169-33.931c3.381-10.695,3.157-19.409-0.689-25.878c-6.926-11.637-24.314-15.494-27.733-16.154
				C366.292,114.667,365.952,114.648,365.611,114.648z"/>
			<path fill='white' id="path-3_1_" d="M93.008,366.812c-6.207,0-12.521-0.262-17.864-0.748H35.511c-12.608,0-23.488-4.924-29.832-13.521
				c-5.731-7.762-7.179-17.562-4.099-27.617l20.049-62.985c4.284-13.979,16.902-22.468,33.688-22.556l82.375-0.438h0.01
				c2.418,0,4.546,0.185,6.712,0.603c10.316,1.943,35.34,6.654,47.842,27.568c7.761,12.997,8.713,28.967,2.855,47.452
				C184.437,348.26,148.174,366.812,93.008,366.812z M137.896,268.119l-82.423,0.427c-1.622,0.01-5.459,0.233-6.032,2.098
				l-20.05,62.986c-0.35,1.127-0.233,1.68-0.233,1.68c0.185,0.232,2.089,1.594,6.353,1.594l41.877,0.086
				c2.633,0.244,8.179,0.662,15.62,0.662c19.302,0,65.2-3.109,74.322-31.892c3.245-10.2,3.206-18.156-0.087-23.664
				c-5.77-9.655-21.429-12.608-27.326-13.716l-0.991-0.185C138.596,268.128,138.247,268.119,137.896,268.119z"/>
			<path fill='white' id="path-4_1_" d="M294.428,366.473c-6.8,0-11.395-0.359-12.385-0.438l-46.706,0.029c-12.608,0-23.488-4.924-29.832-13.521
				c-5.731-7.752-7.179-17.562-4.099-27.617l20.04-62.985c4.284-13.979,16.902-22.468,33.708-22.556l82.354-0.438h0.01
				c2.419,0,4.557,0.194,6.713,0.603l1.797,0.33c10.199,1.778,34.086,5.964,46.171,25.907c7.645,12.609,8.567,28.316,2.739,46.695
				C384.059,346.793,347.427,366.473,294.428,366.473z M337.723,268.119l-82.423,0.427c-1.622,0.01-5.459,0.233-6.042,2.098
				l-20.03,62.986c-0.359,1.127-0.243,1.68-0.243,1.68c0.194,0.232,2.088,1.594,6.353,1.594l48.968,0.059
				c0.797,0.057,4.557,0.35,10.122,0.35c18.66,0,63.111-3.275,72.738-33.65c3.167-9.996,3.206-17.65,0.106-22.75
				c-5.226-8.626-19.972-11.21-26.276-12.308l-2.253-0.408C338.413,268.128,338.072,268.119,337.723,268.119z"/>
			<path fill='white' id="path-5_1_" d="M234.658,526.512c-5.78,0-9.831-0.234-11.268-0.332c-1.467-0.02-40.721-0.406-40.721-0.406
				c-11.327,0-21.779-5.236-28.52-14.367c-6.654-9.016-8.578-20.381-5.265-31.174l20.011-65.043
				c4.517-14.795,18.078-24.811,33.727-24.889l82.375-0.438h0.01c2.408,0,4.536,0.186,6.702,0.604
				c10.024,1.934,34.679,8.693,47.277,29.881c8.296,13.939,9.452,30.637,3.43,49.617
				C326.241,521.002,261.663,526.512,234.658,526.512z M285.199,419.025l-82.423,0.438c-2.875,0.01-5.236,1.689-6.022,4.273
				l-20.021,65.064c-0.738,2.41,0.058,4.197,0.854,5.275c0.69,0.941,2.302,2.535,5.216,2.535
				c41.654,0.408,41.955,0.428,42.489,0.467c1.205,0.076,4.575,0.271,9.364,0.271c20.594,0,69.621-3.527,79.985-36.195
				c3.39-10.703,3.157-19.418-0.699-25.887c-6.917-11.637-24.305-15.504-27.714-16.154
				C285.899,419.045,285.55,419.025,285.199,419.025z"/>
			<path fill='white' id="path-6_1_" d="M503.881,327.764c-5.44,0-10.938-0.205-15.562-0.574h-39.7c-12.483,0-23.305-4.982-29.716-13.658
				c-5.828-7.896-7.324-17.834-4.216-27.976l20.04-63.219c4.265-13.93,17.194-22.721,33.708-22.818l82.364-0.428h0.01
				c2.409,0,4.546,0.185,6.713,0.612c10.307,1.933,35.329,6.644,47.831,27.559c7.762,12.997,8.733,28.957,2.866,47.453
				C593.579,320.865,536.568,327.764,503.881,327.764z M551.013,228.253l-82.433,0.437c-1.991,0.01-5.421,0.33-6.042,2.331
				l-20.03,63.229c-0.302,0.942-0.321,1.749-0.165,1.943c0.524,0.709,2.681,1.826,6.275,1.826l41.711,0.068
				c1.011,0.087,6.13,0.515,13.552,0.515c19.903,0,67.201-3.187,76.565-32.707c3.225-10.19,3.195-18.146-0.107-23.664
				c-5.77-9.655-21.429-12.599-27.315-13.706l-1.001-0.194C551.683,228.272,551.353,228.253,551.013,228.253z"/>
			<path fill='white' id="path-7_1_" d="M471.29,483.012c-6.11,0-10.161-0.252-11.025-0.311l-39.555,0.02c-12.191,0-22.926-5.062-29.453-13.9
				c-5.975-8.082-7.606-18.574-4.479-28.764l20.04-63.705c4.381-14.289,17.311-23.273,33.718-23.361l82.354-0.438h0.01
				c2.419,0,4.565,0.195,6.723,0.611c10.296,1.934,35.329,6.635,47.831,27.559c7.762,12.998,8.724,28.959,2.856,47.453
				C564.632,477.668,498.839,483.012,471.29,483.012z M523.095,381.715l-82.413,0.436c-1.934,0.01-5.284,0.398-6.042,2.857
				l-20.03,63.703c-0.583,1.875-0.078,2.555,0.077,2.77c0.768,1.039,2.924,2.078,6.022,2.078l41.353,0.039
				c0.738,0.039,4.109,0.252,9.229,0.252c16.494,0,71.106-2.486,81.248-34.484c3.234-10.199,3.195-18.154-0.098-23.672
				c-5.77-9.656-21.429-12.6-27.315-13.707l-0.991-0.186C523.784,381.734,523.444,381.715,523.095,381.715z"/>
		</g>
	</g>
	<g>
	</g>
	<g>
	</g>
	<g>
	</g>
	<g>
	</g>
	<g>
	</g>
	<g>
	</g>
	<g>
	</g>
	<g>
	</g>
	<g>
	</g>
	<g>
	</g>
	<g>
	</g>
	<g>
	</g>
	<g>
	</g>
	<g>
	</g>
	<g>
	</g>
</g>
<g>
</g>
<g>
</g>
<g>
</g>
<g>
</g>
<g>
</g>
<g>
</g>
<g>
</g>
<g>
</g>
<g>
</g>
<g>
</g>
<g>
</g>
<g>
</g>
<g>
</g>
<g>
</g>
<g>
</g>
</svg>
